<svg xmlns="http://www.w3.org/2000/svg" viewBox="0 0 512 512">
  <defs>
    <linearGradient id="g" x1="0%" y1="0%" x2="100%" y2="100%">
      <stop offset="0%" stop-color="#FF6B81"/>
      <stop offset="100%" stop-color="#FF3B5C"/>
    </linearGradient>
  </defs>
  <circle cx="256" cy="256" r="256" fill="#FFF5F7"/>
  <path d="M256 422c-6.4 0-12.5-2.3-17.3-6.5C224.3 403 128 316.4 128 236c0-44.2 35.8-80 80-80 24.6 0 46.3 11.1 60.8 28.5C283.3 167.1 305 156 329.6 156c44.2 0 80 35.8 80 80 0 80.4-96.3 167-110.7 179.5-4.8 4.2-10.9 6.5-17.3 6.5z" fill="url(#g)"/>
  <path d="M256 400c-4.8 0-9.4-1.7-13-4.9C230.6 384.2 148 308.3 148 242c0-33.1 26.9-60 60-60 18.5 0 34.7 8.3 45.6 21.4C264.5 190.3 280.7 182 299.2 182c33.1 0 60 26.9 60 60 0 66.3-82.6 142.2-95 153.1-3.6 3.2-8.2 4.9-13 4.9z" fill="url(#g)" opacity="0.6"/>
</svg>
